<?xml version="1.0" standalone="no"?>
<svg xmlns:xlink="http://www.w3.org/1999/xlink" id="wave" style="transform:rotate(180deg); transition: 0.3s" viewBox="0 0 1440 490" version="1.1" xmlns="http://www.w3.org/2000/svg"><defs><linearGradient id="sw-gradient-0" x1="0" x2="0" y1="1" y2="0"><stop stop-color="rgba(250.873, 78.697, 239.452, 1)" offset="0%"/><stop stop-color="rgba(255, 11, 48.711, 1)" offset="100%"/></linearGradient></defs><path style="transform:translate(0, 0px); opacity:1" fill="url(#sw-gradient-0)" d="M0,0L80,32.7C160,65,320,131,480,163.3C640,196,800,196,960,179.7C1120,163,1280,131,1440,106.2C1600,82,1760,65,1920,98C2080,131,2240,212,2400,245C2560,278,2720,261,2880,236.8C3040,212,3200,180,3360,179.7C3520,180,3680,212,3840,212.3C4000,212,4160,180,4320,179.7C4480,180,4640,212,4800,212.3C4960,212,5120,180,5280,138.8C5440,98,5600,49,5760,57.2C5920,65,6080,131,6240,196C6400,261,6560,327,6720,326.7C6880,327,7040,261,7200,220.5C7360,180,7520,163,7680,196C7840,229,8000,310,8160,310.3C8320,310,8480,229,8640,163.3C8800,98,8960,49,9120,73.5C9280,98,9440,196,9600,245C9760,294,9920,294,10080,261.3C10240,229,10400,163,10560,147C10720,131,10880,163,11040,171.5C11200,180,11360,163,11440,155.2L11520,147L11520,490L11440,490C11360,490,11200,490,11040,490C10880,490,10720,490,10560,490C10400,490,10240,490,10080,490C9920,490,9760,490,9600,490C9440,490,9280,490,9120,490C8960,490,8800,490,8640,490C8480,490,8320,490,8160,490C8000,490,7840,490,7680,490C7520,490,7360,490,7200,490C7040,490,6880,490,6720,490C6560,490,6400,490,6240,490C6080,490,5920,490,5760,490C5600,490,5440,490,5280,490C5120,490,4960,490,4800,490C4640,490,4480,490,4320,490C4160,490,4000,490,3840,490C3680,490,3520,490,3360,490C3200,490,3040,490,2880,490C2720,490,2560,490,2400,490C2240,490,2080,490,1920,490C1760,490,1600,490,1440,490C1280,490,1120,490,960,490C800,490,640,490,480,490C320,490,160,490,80,490L0,490Z"/></svg>